<?xml version="1.0" encoding="iso-8859-1"?>
<!-- Generator: Adobe Illustrator 19.0.0, SVG Export Plug-In . SVG Version: 6.00 Build 0)  -->
<svg version="1.1" fill="#ffa16c" id="Capa_1" xmlns="http://www.w3.org/2000/svg" xmlns:xlink="http://www.w3.org/1999/xlink" x="0px" y="0px"
	 viewBox="0 0 49 49" style="enable-background:new 0 0 49 49;" xml:space="preserve">
<g>
	<g>
		<path d="M49,10.5C49,5.084,38.468,1,24.5,1S0,5.084,0,10.5c0,0.35,0.046,0.694,0.132,1.032C0.055,11.673,0,11.828,0,12v6
			c0,0.156,0.039,0.304,0.107,0.435C1.143,22.883,9.781,26.301,21,26.898v12.339c-3.519,0.493-7,1.831-7,4.263
			c0,2.954,5.282,4.5,10.5,4.5S35,46.454,35,43.5c0-2.067-2.615-3.652-7-4.262v-12.34c11.193-0.595,19.82-4,20.886-8.434
			C48.959,18.325,49,18.167,49,18v-6c0-0.172-0.055-0.327-0.132-0.468C48.954,11.194,49,10.85,49,10.5z M24.5,3
			C37.76,3,47,6.952,47,10.5S37.76,18,24.5,18S2,14.048,2,10.5S11.24,3,24.5,3z M33,43.5c0,0.882-3.228,2.5-8.5,2.5
			S16,44.382,16,43.5c0-0.539,1.539-1.701,5-2.233V43c0,0.553,0.447,1,1,1h5c0.553,0,1-0.447,1-1v-1.734
			C31.51,41.807,33,42.968,33,43.5z M26,27v15h-3V27H26z M46.973,17.842C46.418,21.299,37.256,25,24.5,25S2.582,21.299,2.027,17.842
			C2.02,17.801,2.012,17.761,2,17.723V14.39C5.689,17.756,14.149,20,24.5,20s18.811-2.244,22.5-5.61v3.33
			C46.988,17.759,46.979,17.8,46.973,17.842z"/>
		<path d="M9.501,10.5c0.175,0,0.352-0.046,0.514-0.143l5-3c0.474-0.284,0.627-0.898,0.343-1.372
			c-0.284-0.473-0.898-0.628-1.372-0.343l-5,3c-0.474,0.284-0.627,0.899-0.343,1.372C8.83,10.327,9.161,10.5,9.501,10.5z"/>
		<path d="M10.146,13.522C10.335,13.83,10.664,14,11.001,14c0.178,0,0.357-0.047,0.521-0.146l9-5.5
			c0.472-0.288,0.62-0.903,0.332-1.375c-0.287-0.472-0.902-0.62-1.375-0.332l-9,5.5C10.007,12.435,9.858,13.05,10.146,13.522z"/>
	</g>
</g>
<g>
</g>
<g>
</g>
<g>
</g>
<g>
</g>
<g>
</g>
<g>
</g>
<g>
</g>
<g>
</g>
<g>
</g>
<g>
</g>
<g>
</g>
<g>
</g>
<g>
</g>
<g>
</g>
<g>
</g>
</svg>
